{"title":"Das Leben der Anderen 2006 DVDRip [H 264-MP4-AAC] ~ Mindbreaker","uid":5165163,"size":1943664538,"categoryP":"video","categoryS":"movies","magnet":"?xt=urn:btih:c90e5549f675ff369fc869eb39e3f8e2313e6a7a&amp;dn=Das+Leben+der+Anderen+2006+DVDRip+%5BH+264-MP4-AAC%5D+%7E+Mindbreaker&amp;tr=udp%3A%2F%2Ftracker.openbittorrent.com%3A80&amp;tr=udp%3A%2F%2Fopen.demonii.com%3A1337&amp;tr=udp%3A%2F%2Ftracker.coppersurfer.tk%3A6969&amp;tr=udp%3A%2F%2Fexodus.desync.com%3A6969","seeders":1,"leechers":0,"uploader":"mind3103","files":4,"time":1258366407,"description":" &lt;a href=&quot;http://www.imdb.com/title/tt0405094/&quot; rel=&quot;nofollow&quot; target=&quot;_NEW&quot;&gt;http://www.imdb.com/title/tt0405094/&lt;/a&gt;\nTagline: Before the Fall of the Berlin Wall, East Germany's Secret Police Listened to Your Secrets \nPlot: In 1984 East Berlin, an agent of the secret police, conducting surveillance on a writer and his lover, finds himself becoming increasingly absorbed by their lives\nTotal Size : 1.81 GB\n\n[code]General\nComplete name : Das Leben der Anderen 2006 DVDRip [H 264-MP4-AAC] ~ Mindbreaker.mp4\nFormat : H.264/AAC/MP4 - Anamophic\nSource : DVD (retail)\nFile size : 1.81 GiB\nDuration : 2h 11mn\nOverall bit rate : 1 963 Kbps\n\n\nVideo\nID : 1\nFormat : AVC\nFormat/Info : Advanced Video Codec\nFormat profile : &lt;a class=&quot;__cf_email__&quot; href=&quot;/cdn-cgi/l/email-protection&quot; data-cfemail=&quot;4c04252b240c007f627c&quot;&gt;[email&amp;#160;protected]&lt;/a&gt;&lt;script cf-hash='f9e31' type=&quot;text/javascript&quot;&gt;\n/* &lt;![CDATA[ */!function(){try{var t=&quot;currentScript&quot;in document?document.currentScript:function(){for(var t=document.getElementsByTagName(&quot;script&quot;),e=t.length;e--;)if(t[e].getAttribute(&quot;cf-hash&quot;))return t[e]}();if(t&amp;&amp;t.previousSibling){var e,r,n,i,c=t.previousSibling,a=c.getAttribute(&quot;data-cfemail&quot;);if(a){for(e=&quot;&quot;,r=parseInt(a.substr(0,2),16),n=2;a.length-n;n+=2)i=parseInt(a.substr(n,2),16)^r,e+=String.fromCharCode(i);e=document.createTextNode(e),c.parentNode.replaceChild(e,c)}}}catch(u){}}();/* ]]&gt; */&lt;/script&gt;\nDuration : 2h 11mn\nBit rate : 1800 Kbps\nWidth : 720 pixels\nHeight : 432 pixels\nDisplay aspect ratio : 2.35:1\nFrame rate : 25.000 fps\nBits/(Pixel*Frame) : 0.231\nStream size : 1.66 GiB (92%)\nWriting library : x264 core 65\n\nAudio\nID : 2\nFormat : AAC\nFormat/Info : Advanced Audio Codec\nFormat profile : LC\nDuration : 2h 11mn\nBit rate : 160 Kbps\nChannel(s) : 2 channels\nSampling rate : 48.0 KHz\nStream size : 151 MiB (8%)\nLanguage : German\n\nSubtitle\nFormat : SubRip\nLanguage : Dutch &amp; English\nSource : DVD &amp; Subscene.org &lt;a href=&quot;\nhttp://genesis.1337x.org:1337/announce&quot; rel=&quot;nofollow&quot; target=&quot;_NEW&quot;&gt;\nhttp://genesis.1337x.org:1337/announce&lt;/a&gt;\nhttp://tracker.openbittorrent.com/announce[/code]\n\n","torrent":{"xt":"urn:btih:c90e5549f675ff369fc869eb39e3f8e2313e6a7a","amp;dn":"Das+Leben+der+Anderen+2006+DVDRip+%5BH+264-MP4-AAC%5D+%7E+Mindbreaker","amp;tr":["udp%3A%2F%2Ftracker.openbittorrent.com%3A80","udp%3A%2F%2Fopen.demonii.com%3A1337","udp%3A%2F%2Ftracker.coppersurfer.tk%3A6969","udp%3A%2F%2Fexodus.desync.com%3A6969"],"infoHash":"c90e5549f675ff369fc869eb39e3f8e2313e6a7a","infoHashBuffer":{"type":"Buffer","data":[201,14,85,73,246,117,255,54,159,200,105,235,57,227,248,226,49,62,106,122]},"announce":[],"urlList":[]}}